<svg xmlns="http://www.w3.org/2000/svg" xmlns:xlink="http://www.w3.org/1999/xlink" viewBox="0 0 375 369"><defs><style>.a,.d{fill:none;}.b{clip-path:url(#j);}.c{fill:rgba(0,0,0,0.32);opacity:0.8;}.d{stroke:#fff;stroke-width:12px;}.e{fill:#fff;}.f{stroke:none;}.g{filter:url(#g);}.h{filter:url(#e);}.i{filter:url(#c);}.j{filter:url(#a);}</style><filter id="a" x="18" y="14" width="336" height="336" filterUnits="userSpaceOnUse"><feOffset dx="2" dy="5" input="SourceAlpha"/><feGaussianBlur stdDeviation="6" result="b"/><feFlood flood-opacity="0.471"/><feComposite operator="in" in2="b"/><feComposite in="SourceGraphic"/></filter><filter id="c" x="216.016" y="118.467" width="28.738" height="9.4" filterUnits="userSpaceOnUse"><feOffset dy="0.2" input="SourceAlpha"/><feGaussianBlur stdDeviation="0.4" result="d"/><feFlood flood-opacity="0.439"/><feComposite operator="in" in2="d"/><feComposite in="SourceGraphic"/></filter><filter id="e" x="110.662" y="118.467" width="43.987" height="9.4" filterUnits="userSpaceOnUse"><feOffset dy="0.2" input="SourceAlpha"/><feGaussianBlur stdDeviation="0.4" result="f"/><feFlood flood-opacity="0.439"/><feComposite operator="in" in2="f"/><feComposite in="SourceGraphic"/></filter><filter id="g" x="251.285" y="118.467" width="9.4" height="9.4" filterUnits="userSpaceOnUse"><feOffset dy="0.2" input="SourceAlpha"/><feGaussianBlur stdDeviation="0.4" result="h"/><feFlood flood-opacity="0.439"/><feComposite operator="in" in2="h"/><feComposite in="SourceGraphic"/></filter><clipPath id="j"><rect width="375" height="369"/></clipPath></defs><g id="i" class="b"><path class="c" d="M5.539-9.109,35.914-39.483,56.436-58.165,176.582,61.981,170.448,155.8l-40.309,23.137-36.55,10.138L54.73,192.035l-48.148-9.2-36.609-24.243L-47.47,40.557l.953-3.242,2.051-2.051Z" transform="translate(103.641 186.423) rotate(-45)"/><g class="j" transform="matrix(1, 0, 0, 1, 0, 0)"><g class="d" transform="translate(34 27)"><circle class="f" cx="150" cy="150" r="150"/><circle class="a" cx="150" cy="150" r="144"/></g></g><path class="e" d="M171.665,152H5a5.006,5.006,0,0,1-5-5V11A5.006,5.006,0,0,1,5,6H171.665a5.005,5.005,0,0,1,5,5V147A5.006,5.006,0,0,1,171.665,152Zm-51.348-35.8v28h48v-28Zm-56,0v28h48v-28Zm-56,0v28h48v-28Zm112-36v28h48v-28Zm-56,0v28h48v-28Zm-56,0v28h48v-28Zm112-36v28h48v-28Zm-56,0v28h48v-28Zm-56,0v28h48v-28Zm2-30.884a2,2,0,0,0-2,2V34.883a2,2,0,0,0,2,2h157.03a2,2,0,0,0,2-2V15.317a2,2,0,0,0-2-2Z" transform="translate(97 97.832)"/><g class="i" transform="matrix(1, 0, 0, 1, 0, 0)"><rect class="e" width="26.338" height="7" rx="2" transform="translate(217.22 119.47)"/></g><g class="h" transform="matrix(1, 0, 0, 1, 0, 0)"><rect class="e" width="41.587" height="7" rx="2" transform="translate(111.86 119.47)"/></g><g class="g" transform="matrix(1, 0, 0, 1, 0, 0)"><circle class="e" cx="3.5" cy="3.5" r="3.5" transform="translate(252.49 119.47)"/></g></g></svg>